{"title":"Dracula (1979)","uid":5854913,"size":734311902,"categoryP":"video","categoryS":"movies","magnet":"?xt=urn:btih:9bd12846257c6dd438c8f7be58a8af18599bc61d&amp;dn=Dracula+%281979%29&amp;tr=udp%3A%2F%2Ftracker.openbittorrent.com%3A80&amp;tr=udp%3A%2F%2Fopen.demonii.com%3A1337&amp;tr=udp%3A%2F%2Ftracker.coppersurfer.tk%3A6969&amp;tr=udp%3A%2F%2Fexodus.desync.com%3A6969","seeders":2,"leechers":1,"uploader":".BONE.","files":8,"time":1285565682,"description":"Plot: When a ship is wrecked off Whitby, the only survivor, Count Dracula, is discovered lying on the beach by the sickly young Mina, who is visiting her dear friend Lucy Seward. Lucy, her fiancÃƒÂ© Johnathan Harker (a solicitor), and her father Dr. Seward (who runs the local asylum) try to make the Count feel welcome to England. The Count quickly takes the life of Mina, and proceeds to romance Lucy, with the intention of making her his greatest bride. Soon after the death of Mina, the Sewards call her father, Dr. Van Helsing to come to their home. As Lucy falls deeper under the spell of the Count, Dr. Van Helsing almost immediately comes to understand that his daughter fell prey to a vampire and discovers the culprit to be none other than the Count himself. Dr. Van Helsing, Dr. Seward, and Johnathan Harker work together to foil the Count's plans to take Lucy away to his native Transylvania.\n\nVideo\nID : 0\nFormat : MPEG-4 Visual\nFormat profile : Advanced Simple@L5\nFormat settings, BVOP : Yes\nFormat settings, QPel : No\nFormat settings, GMC : No warppoints\nFormat settings, Matrix : Custom\nCodec ID : XVID\nCodec ID/Hint : XviD\nDuration : 1h 49mn\nBit rate : 761 Kbps\nWidth : 720 pixels\nHeight : 304 pixels\nDisplay aspect ratio : 2.35:1\nFrame rate : 23.976 fps\nColor space : YUV\nChroma subsampling : 4:2:0\nBit depth : 8 bits\nScan type : Progressive\nBits/(Pixel*Frame) : 0.145\nStream size : 595 MiB (85%)\nWriting library : XviD 1.2.1 (UTC 2008-12-04)\n\nAudio\nID : 1\nFormat : MPEG Audio\nFormat version : Version 1\nFormat profile : Layer 3\nMode : Joint stereo\nMode extension : MS Stereo\nCodec ID : 55\nCodec ID/Hint : MP3\nDuration : 1h 49mn\nBit rate mode : Constant\nBit rate : 128 Kbps\nChannel(s) : 2 channels\nSampling rate : 48.0 KHz\nStream size : 100.0 MiB (14%)\nAlignment : Aligned on interleaves\nInterleave, duration : 83 ms (2.00 video frames)\nInterleave, preload duration : 504 ms\nWriting library : LAME3.98r\nEncoding settings : -m j -V 4 -q 2 -lowpass 17 -b 128\nLanguage : English\n &lt;a href=&quot;\nhttp://www.imdb.com/title/tt0079073/&quot; rel=&quot;nofollow&quot; target=&quot;_NEW&quot;&gt;\nhttp://www.imdb.com/title/tt0079073/&lt;/a&gt;","torrent":{"xt":"urn:btih:9bd12846257c6dd438c8f7be58a8af18599bc61d","amp;dn":"Dracula+%281979%29","amp;tr":["udp%3A%2F%2Ftracker.openbittorrent.com%3A80","udp%3A%2F%2Fopen.demonii.com%3A1337","udp%3A%2F%2Ftracker.coppersurfer.tk%3A6969","udp%3A%2F%2Fexodus.desync.com%3A6969"],"infoHash":"9bd12846257c6dd438c8f7be58a8af18599bc61d","infoHashBuffer":{"type":"Buffer","data":[155,209,40,70,37,124,109,212,56,200,247,190,88,168,175,24,89,155,198,29]},"announce":[],"urlList":[]}}